<svg width="199" height="86" viewBox="0 0 199 86" fill="none" xmlns="http://www.w3.org/2000/svg">
<path d="M198 0.985565H118.098V10.8415H175.171L176.802 7.55621H193.108L198 0.985565Z" fill="#CD2F2F" stroke="#CD2F2F" stroke-width="0.45"/>
<path fill-rule="evenodd" clip-rule="evenodd" d="M180.606 10.8863H194.739V20.6341H153.912V34.2811L136.639 40.1298L134.878 52.0986H117.605L109.945 28.4324L116.226 14.7854H179.036L180.606 10.8863ZM140.927 22.5837V28.4324L136.035 30.382L137.666 34.2811H145.819H147.45V22.5837H140.927Z" fill="#CD2F2F"/>
<path d="M194.739 10.8863H195.189V10.4363H194.739V10.8863ZM180.606 10.8863V10.4363H180.302L180.189 10.7182L180.606 10.8863ZM194.739 20.6341V21.0841H195.189V20.6341H194.739ZM153.912 20.6341V20.1841H153.462V20.6341H153.912ZM153.912 34.2811L154.056 34.7073L154.362 34.6038V34.2811H153.912ZM136.639 40.1298L136.495 39.7036L136.234 39.7919L136.194 40.0643L136.639 40.1298ZM134.878 52.0986V52.5486H135.267L135.323 52.1641L134.878 52.0986ZM117.605 52.0986L117.177 52.2372L117.278 52.5486H117.605V52.0986ZM109.945 28.4324L109.536 28.2442L109.463 28.4038L109.517 28.571L109.945 28.4324ZM116.226 14.7854V14.3354H115.938L115.817 14.5973L116.226 14.7854ZM179.036 14.7854V15.2354H179.34L179.454 14.9535L179.036 14.7854ZM140.927 28.4324L141.094 28.8504L141.377 28.7375V28.4324H140.927ZM140.927 22.5837V22.1337H140.477V22.5837H140.927ZM136.035 30.382L135.869 29.964L135.443 30.1334L135.62 30.5556L136.035 30.382ZM137.666 34.2811L137.251 34.4547L137.366 34.7311H137.666V34.2811ZM147.45 34.2811V34.7311H147.9V34.2811H147.45ZM147.45 22.5837H147.9V22.1337H147.45V22.5837ZM194.739 10.4363H180.606V11.3363H194.739V10.4363ZM195.189 20.6341V10.8863H194.289V20.6341H195.189ZM153.912 21.0841H194.739V20.1841H153.912V21.0841ZM154.362 34.2811V20.6341H153.462V34.2811H154.362ZM136.784 40.556L154.056 34.7073L153.768 33.8549L136.495 39.7036L136.784 40.556ZM135.323 52.1641L137.084 40.1953L136.194 40.0643L134.433 52.0331L135.323 52.1641ZM117.605 52.5486H134.878V51.6486H117.605V52.5486ZM109.517 28.571L117.177 52.2372L118.033 51.96L110.373 28.2938L109.517 28.571ZM115.817 14.5973L109.536 28.2442L110.354 28.6205L116.635 14.9736L115.817 14.5973ZM179.036 14.3354H116.226V15.2354H179.036V14.3354ZM180.189 10.7182L178.619 14.6173L179.454 14.9535L181.024 11.0544L180.189 10.7182ZM141.377 28.4324V22.5837H140.477V28.4324H141.377ZM136.202 30.8L141.094 28.8504L140.761 28.0144L135.869 29.964L136.202 30.8ZM138.081 34.1075L136.45 30.2084L135.62 30.5556L137.251 34.4547L138.081 34.1075ZM145.819 33.8311H137.666V34.7311H145.819V33.8311ZM147.45 33.8311H145.819V34.7311H147.45V33.8311ZM147 22.5837V34.2811H147.9V22.5837H147ZM140.927 23.0337H147.45V22.1337H140.927V23.0337Z" fill="#CD2F2F"/>
<path d="M126.34 10.8863H114.967L106.843 18.7363L113.342 50.1361L121.466 52.0986L126.34 10.8863Z" fill="#3A332A"/>
<path d="M8.92292 0H20.5853L29.5083 40.2304L20.8984 55.1934L19.333 44.2336V44.3913H9.54909L7.98366 55.1934L0 46.0471L8.92292 0ZM18.3155 36.9008L14.4802 9.61943H14.3236L10.5666 36.9008H18.3155Z" fill="#281D21"/>
<path d="M33.6854 0H46.8349C51.1138 0 54.3229 1.15643 56.4623 3.4693C58.6017 5.78217 59.6714 9.17262 59.6714 13.6407V41.5528C59.6714 46.0208 58.6017 49.4113 56.4623 51.7241C54.3229 54.037 51.1138 55.1934 46.8349 55.1934H33.6854V0ZM46.6784 47.3087C48.0873 47.3087 49.157 46.8881 49.8875 46.0471C50.6702 45.2061 51.0616 43.8394 51.0616 41.947V13.2464C51.0616 11.3541 50.6702 9.98738 49.8875 9.14634C49.157 8.3053 48.0873 7.88478 46.6784 7.88478H42.2952V47.3087H46.6784Z" fill="#281D21"/>
<path d="M65.483 0H88.9644V7.88478H74.0929V22.4716H85.9118V30.3564H74.0929V47.3087H88.9644V55.1934L65.483 57.5408V0Z" fill="#281D21"/>
<path d="M101.663 26.9659L92.1919 0H101.271L107.063 17.8196H107.22L113.169 0H121.309L111.838 26.9659L121.778 55.1934L118.098 65.0494L106.437 35.9546H106.281L99.8624 55.1934L93.178 47.3087L101.663 26.9659Z" fill="#281D21"/>
<path d="M30.415 60.9545H33.6449V79.0983H38.9594V82.1223H30.415V60.9545Z" fill="#281D21"/>
<path d="M40.5083 60.9545H49.3169V63.9785H43.7381V69.5728H48.1718V72.5968H43.7381V79.0983H49.3169V82.1223H40.5083V60.9545Z" fill="#281D21"/>
<path d="M55.7554 82.4247C54.1894 82.4247 52.9954 81.9711 52.1733 81.0639C51.3511 80.1365 50.94 78.8161 50.94 77.1025V65.9743C50.94 64.2607 51.3511 62.9503 52.1733 62.0431C52.9954 61.1158 54.1894 60.6521 55.7554 60.6521C57.3214 60.6521 58.5155 61.1158 59.3376 62.0431C60.1597 62.9503 60.5708 64.2607 60.5708 65.9743V67.7887H57.5172V65.7626C57.5172 64.3716 56.9593 63.6761 55.8435 63.6761C54.7278 63.6761 54.1699 64.3716 54.1699 65.7626V77.3444C54.1699 78.7153 54.7278 79.4007 55.8435 79.4007C56.9593 79.4007 57.5172 78.7153 57.5172 77.3444V73.2016H55.9022V70.1776H60.5708V77.1025C60.5708 78.8161 60.1597 80.1365 59.3376 81.0639C58.5155 81.9711 57.3214 82.4247 55.7554 82.4247Z" fill="#281D21"/>
<path d="M62.6445 60.9545H71.4531V63.9785H65.8743V69.5728H70.308V72.5968H65.8743V79.0983H71.4531V82.1223H62.6445V60.9545Z" fill="#281D21"/>
<path d="M73.3112 60.9545H77.3632L80.5049 73.6249H80.5636V60.9545H83.4411V82.1223H80.1232L76.2474 66.6698H76.1887V82.1223H73.3112V60.9545Z" fill="#281D21"/>
<path d="M85.8417 60.9545H90.7745C92.3796 60.9545 93.5835 61.398 94.3861 62.285C95.1886 63.1721 95.5899 64.4724 95.5899 66.186V76.8908C95.5899 78.6044 95.1886 79.9047 94.3861 80.7917C93.5835 81.6787 92.3796 82.1223 90.7745 82.1223H85.8417V60.9545ZM90.7158 79.0983C91.2443 79.0983 91.6456 78.937 91.9196 78.6145C92.2133 78.2919 92.3601 77.7677 92.3601 77.042V66.0348C92.3601 65.309 92.2133 64.7849 91.9196 64.4623C91.6456 64.1397 91.2443 63.9785 90.7158 63.9785H89.0715V79.0983H90.7158Z" fill="#281D21"/>
<path d="M101.969 82.4247C100.403 82.4247 99.2186 81.9711 98.416 81.0639C97.6134 80.1365 97.2122 78.8161 97.2122 77.1025V75.8929H100.266V77.3444C100.266 78.7153 100.824 79.4007 101.939 79.4007C102.488 79.4007 102.899 79.2394 103.173 78.9169C103.466 78.5741 103.613 78.0298 103.613 77.2839C103.613 76.3969 103.417 75.6207 103.026 74.9555C102.634 74.27 101.91 73.4536 100.853 72.506C99.522 71.2965 98.5922 70.2078 98.0637 69.2402C97.5351 68.2523 97.2709 67.1435 97.2709 65.9138C97.2709 64.2405 97.6819 62.9503 98.5041 62.0431C99.3262 61.1158 100.52 60.6521 102.086 60.6521C103.633 60.6521 104.797 61.1158 105.58 62.0431C106.383 62.9503 106.784 64.2607 106.784 65.9743V66.8512H103.731V65.7626C103.731 65.0368 103.594 64.5127 103.319 64.1901C103.045 63.8474 102.644 63.6761 102.116 63.6761C101.039 63.6761 100.501 64.3514 100.501 65.7021C100.501 66.4682 100.696 67.1839 101.088 67.8491C101.499 68.5144 102.233 69.3208 103.29 70.2683C104.641 71.4779 105.571 72.5766 106.079 73.5644C106.588 74.5523 106.843 75.7114 106.843 77.042C106.843 78.7757 106.422 80.1063 105.58 81.0336C104.758 81.961 103.554 82.4247 101.969 82.4247Z" fill="#281D21"/>
</svg>
