<svg width="199" height="86" viewBox="0 0 199 86" fill="none" xmlns="http://www.w3.org/2000/svg">
<path d="M198 0.985565H118.098V10.8415H175.171L176.802 7.55621H193.108L198 0.985565Z" fill="#CD2F2F" stroke="#CD2F2F" stroke-width="0.45"/>
<path fill-rule="evenodd" clip-rule="evenodd" d="M180.606 10.8863H194.739V20.6341H153.912V34.2811L136.639 40.1298L134.878 52.0986H117.605L109.945 28.4324L116.226 14.7854H179.036L180.606 10.8863ZM140.927 22.5837V28.4324L136.035 30.382L137.666 34.2811H145.819H147.45V22.5837H140.927Z" fill="#CD2F2F"/>
<path d="M194.739 10.8863H195.189V10.4363H194.739V10.8863ZM180.606 10.8863V10.4363H180.302L180.189 10.7182L180.606 10.8863ZM194.739 20.6341V21.0841H195.189V20.6341H194.739ZM153.912 20.6341V20.1841H153.462V20.6341H153.912ZM153.912 34.2811L154.056 34.7073L154.362 34.6038V34.2811H153.912ZM136.639 40.1298L136.495 39.7035L136.234 39.7918L136.194 40.0643L136.639 40.1298ZM134.878 52.0986V52.5486H135.267L135.323 52.1641L134.878 52.0986ZM117.605 52.0986L117.177 52.2372L117.278 52.5486H117.605V52.0986ZM109.945 28.4324L109.536 28.2442L109.463 28.4038L109.517 28.571L109.945 28.4324ZM116.226 14.7854V14.3354H115.938L115.817 14.5973L116.226 14.7854ZM179.036 14.7854V15.2354H179.34L179.454 14.9535L179.036 14.7854ZM140.927 28.4324L141.094 28.8504L141.377 28.7375V28.4324H140.927ZM140.927 22.5837V22.1337H140.477V22.5837H140.927ZM136.035 30.382L135.869 29.9639L135.443 30.1334L135.62 30.5556L136.035 30.382ZM137.666 34.2811L137.251 34.4547L137.366 34.7311H137.666V34.2811ZM147.45 34.2811V34.7311H147.9V34.2811H147.45ZM147.45 22.5837H147.9V22.1337H147.45V22.5837ZM194.739 10.4363H180.606V11.3363H194.739V10.4363ZM195.189 20.6341V10.8863H194.289V20.6341H195.189ZM153.912 21.0841H194.739V20.1841H153.912V21.0841ZM154.362 34.2811V20.6341H153.462V34.2811H154.362ZM136.784 40.556L154.056 34.7073L153.768 33.8548L136.495 39.7035L136.784 40.556ZM135.323 52.1641L137.084 40.1953L136.194 40.0643L134.433 52.0331L135.323 52.1641ZM117.605 52.5486H134.878V51.6486H117.605V52.5486ZM109.517 28.571L117.177 52.2372L118.033 51.96L110.373 28.2938L109.517 28.571ZM115.817 14.5973L109.536 28.2442L110.354 28.6205L116.635 14.9736L115.817 14.5973ZM179.036 14.3354H116.226V15.2354H179.036V14.3354ZM180.189 10.7182L178.619 14.6173L179.454 14.9535L181.024 11.0544L180.189 10.7182ZM141.377 28.4324V22.5837H140.477V28.4324H141.377ZM136.202 30.8L141.094 28.8504L140.761 28.0144L135.869 29.9639L136.202 30.8ZM138.081 34.1075L136.45 30.2083L135.62 30.5556L137.251 34.4547L138.081 34.1075ZM145.819 33.8311H137.666V34.7311H145.819V33.8311ZM147.45 33.8311H145.819V34.7311H147.45V33.8311ZM147 22.5837V34.2811H147.9V22.5837H147ZM140.927 23.0337H147.45V22.1337H140.927V23.0337Z" fill="#CD2F2F"/>
<path d="M126.34 10.8863H114.967L106.843 18.7362L113.342 50.1361L121.466 52.0986L126.34 10.8863Z" fill="#3A332A"/>
<path d="M8.92292 0H20.5853L29.5083 40.2304L20.8984 55.1934L19.333 44.2336V44.3913H9.54909L7.98366 55.1934L0 46.0471L8.92292 0ZM18.3155 36.9008L14.4802 9.61943H14.3236L10.5666 36.9008H18.3155Z" fill="white"/>
<path d="M33.6854 0H46.8349C51.1138 0 54.3229 1.15643 56.4623 3.4693C58.6017 5.78217 59.6714 9.17262 59.6714 13.6407V41.5528C59.6714 46.0208 58.6017 49.4113 56.4623 51.7241C54.3229 54.037 51.1138 55.1934 46.8349 55.1934H33.6854V0ZM46.6784 47.3087C48.0873 47.3087 49.157 46.8881 49.8875 46.0471C50.6702 45.2061 51.0616 43.8394 51.0616 41.947V13.2464C51.0616 11.3541 50.6702 9.98738 49.8875 9.14634C49.157 8.3053 48.0873 7.88478 46.6784 7.88478H42.2952V47.3087H46.6784Z" fill="white"/>
<path d="M65.483 0H88.9644V7.88478H74.0929V22.4716H85.9118V30.3564H74.0929V47.3087H88.9644V55.1934L65.483 57.5408V0Z" fill="white"/>
<path d="M101.663 26.9659L92.1919 0H101.271L107.063 17.8196H107.22L113.169 0H121.309L111.838 26.9659L121.778 55.1934L118.098 65.0494L106.437 35.9546H106.281L99.8625 55.1934L93.178 47.3087L101.663 26.9659Z" fill="white"/>
<path d="M22.6165 60.9545H25.8463V79.0983H31.1608V82.1223H22.6165V60.9545Z" fill="white"/>
<path d="M32.7097 60.9545H41.5183V63.9785H35.9395V69.5728H40.3732V72.5968H35.9395V79.0983H41.5183V82.1223H32.7097V60.9545Z" fill="white"/>
<path d="M47.9568 82.4247C46.3909 82.4247 45.1968 81.9711 44.3747 81.0639C43.5525 80.1365 43.1415 78.8161 43.1415 77.1025V65.9743C43.1415 64.2607 43.5525 62.9503 44.3747 62.0431C45.1968 61.1158 46.3909 60.6521 47.9568 60.6521C49.5228 60.6521 50.7169 61.1158 51.539 62.0431C52.3612 62.9503 52.7722 64.2607 52.7722 65.9743V67.7887H49.7186V65.7626C49.7186 64.3716 49.1607 63.6761 48.0449 63.6761C46.9292 63.6761 46.3713 64.3716 46.3713 65.7626V77.3444C46.3713 78.7153 46.9292 79.4007 48.0449 79.4007C49.1607 79.4007 49.7186 78.7153 49.7186 77.3444V73.2016H48.1037V70.1776H52.7722V77.1025C52.7722 78.8161 52.3612 80.1365 51.539 81.0639C50.7169 81.9711 49.5228 82.4247 47.9568 82.4247Z" fill="white"/>
<path d="M54.8459 60.9545H63.6545V63.9785H58.0757V69.5728H62.5094V72.5968H58.0757V79.0983H63.6545V82.1223H54.8459V60.9545Z" fill="white"/>
<path d="M65.5126 60.9545H69.5646L72.7063 73.6249H72.765V60.9545H75.6425V82.1223H72.3246L68.4488 66.6698H68.3901V82.1223H65.5126V60.9545Z" fill="white"/>
<path d="M78.0431 60.9545H82.9759C84.5811 60.9545 85.7849 61.398 86.5875 62.285C87.39 63.1721 87.7913 64.4724 87.7913 66.186V76.8908C87.7913 78.6044 87.39 79.9047 86.5875 80.7917C85.7849 81.6787 84.5811 82.1223 82.9759 82.1223H78.0431V60.9545ZM82.9172 79.0983C83.4457 79.0983 83.847 78.937 84.1211 78.6145C84.4147 78.2919 84.5615 77.7677 84.5615 77.042V66.0348C84.5615 65.309 84.4147 64.7849 84.1211 64.4623C83.847 64.1397 83.4457 63.9785 82.9172 63.9785H81.2729V79.0983H82.9172Z" fill="white"/>
<path d="M94.1702 82.4247C92.6042 82.4247 91.42 81.9711 90.6174 81.0639C89.8149 80.1365 89.4136 78.8161 89.4136 77.1025V75.8929H92.4672V77.3444C92.4672 78.7153 93.0251 79.4007 94.1409 79.4007C94.689 79.4007 95.1 79.2394 95.3741 78.9169C95.6677 78.5741 95.8145 78.0298 95.8145 77.2839C95.8145 76.3969 95.6188 75.6207 95.2273 74.9555C94.8358 74.27 94.1115 73.4536 93.0545 72.506C91.7234 71.2965 90.7936 70.2078 90.2651 69.2402C89.7366 68.2523 89.4723 67.1435 89.4723 65.9138C89.4723 64.2405 89.8834 62.9503 90.7055 62.0431C91.5276 61.1158 92.7217 60.6521 94.2877 60.6521C95.8341 60.6521 96.9988 61.1158 97.7818 62.0431C98.5843 62.9503 98.9856 64.2607 98.9856 65.9743V66.8512H95.932V65.7626C95.932 65.0369 95.7949 64.5127 95.5209 64.1901C95.2468 63.8474 94.8456 63.6761 94.317 63.6761C93.2404 63.6761 92.7021 64.3514 92.7021 65.7021C92.7021 66.4682 92.8979 67.1839 93.2894 67.8491C93.7004 68.5144 94.4345 69.3208 95.4915 70.2683C96.8422 71.4779 97.772 72.5766 98.2809 73.5644C98.7899 74.5523 99.0443 75.7114 99.0443 77.042C99.0443 78.7757 98.6235 80.1063 97.7818 81.0336C96.9596 81.961 95.7558 82.4247 94.1702 82.4247Z" fill="white"/>
</svg>
