<svg width="397" height="189" viewBox="0 0 397 189" fill="none" xmlns="http://www.w3.org/2000/svg">
<g filter="url(#filter0_d_82_96)">
<path d="M376 17.7763H232.338V35.54H334.954L337.886 29.6188H367.204L376 17.7763Z" fill="#CD2F2F" stroke="#CD2F2F" stroke-width="0.45"/>
<path fill-rule="evenodd" clip-rule="evenodd" d="M344.727 35.6206H370.136V53.1894H296.731V77.7856L265.675 88.3269L262.508 109.899H231.452L217.679 67.2444L228.972 42.6481H341.903L344.727 35.6206ZM273.384 56.7032V67.2444L264.589 70.7582L267.52 77.7857H282.18H285.112V56.7032H273.384Z" fill="#CD2F2F"/>
<path d="M370.136 35.6206H370.586V35.1706H370.136V35.6206ZM344.727 35.6206V35.1706H344.422L344.309 35.4529L344.727 35.6206ZM370.136 53.1894V53.6394H370.586V53.1894H370.136ZM296.731 53.1894V52.7394H296.281V53.1894H296.731ZM296.731 77.7856L296.875 78.2118L297.181 78.1081V77.7856H296.731ZM265.675 88.3269L265.53 87.9008L265.269 87.9892L265.229 88.2615L265.675 88.3269ZM262.508 109.899V110.349H262.897L262.953 109.964L262.508 109.899ZM231.452 109.899L231.024 110.037L231.125 110.349H231.452V109.899ZM217.679 67.2444L217.27 67.0566L217.197 67.2159L217.25 67.3827L217.679 67.2444ZM228.972 42.6481V42.1981H228.683L228.563 42.4603L228.972 42.6481ZM341.903 42.6481V43.0981H342.207L342.321 42.8159L341.903 42.6481ZM273.384 67.2444L273.551 67.6623L273.834 67.5493V67.2444H273.384ZM273.384 56.7032V56.2532H272.934V56.7032H273.384ZM264.589 70.7582L264.422 70.3403L263.997 70.5098L264.173 70.9315L264.589 70.7582ZM267.52 77.7857L267.105 77.959L267.221 78.2357H267.52V77.7857ZM285.112 77.7857V78.2357H285.562V77.7857H285.112ZM285.112 56.7032H285.562V56.2532H285.112V56.7032ZM370.136 35.1706H344.727V36.0706H370.136V35.1706ZM370.586 53.1894V35.6206H369.686V53.1894H370.586ZM296.731 53.6394H370.136V52.7394H296.731V53.6394ZM297.181 77.7856V53.1894H296.281V77.7856H297.181ZM265.819 88.753L296.875 78.2118L296.586 77.3595L265.53 87.9008L265.819 88.753ZM262.953 109.964L266.12 88.3922L265.229 88.2615L262.063 109.833L262.953 109.964ZM231.452 110.349H262.508V109.449H231.452V110.349ZM217.25 67.3827L231.024 110.037L231.88 109.76L218.107 67.1061L217.25 67.3827ZM228.563 42.4603L217.27 67.0566L218.088 67.4321L229.381 42.8359L228.563 42.4603ZM341.903 42.1981H228.972V43.0981H341.903V42.1981ZM344.309 35.4529L341.486 42.4804L342.321 42.8159L345.144 35.7884L344.309 35.4529ZM273.834 67.2444V56.7032H272.934V67.2444H273.834ZM264.756 71.1761L273.551 67.6623L273.217 66.8266L264.422 70.3403L264.756 71.1761ZM267.936 77.6124L265.004 70.5849L264.173 70.9315L267.105 77.959L267.936 77.6124ZM282.18 77.3357H267.52V78.2357H282.18V77.3357ZM285.112 77.3357H282.18V78.2357H285.112V77.3357ZM284.662 56.7032V77.7857H285.562V56.7032H284.662ZM273.384 57.1532H285.112V56.2532H273.384V57.1532Z" fill="#CD2F2F"/>
<path d="M247.157 35.6206H226.708L212.102 49.7688L223.787 106.362L238.393 109.899L247.157 35.6206Z" fill="#3A332A"/>
<path d="M36.0432 16H57.012L73.0552 88.5083L57.5749 115.477L54.7603 95.7233V96.0076H37.1691L34.3545 115.477L20 98.9919L36.0432 16ZM52.9308 82.5072L46.0351 33.3373H45.7536L38.9986 82.5072H52.9308Z" fill="white"/>
<path d="M80.5656 16H104.208C111.901 16 117.671 18.0843 121.518 22.2528C125.365 26.4214 127.288 32.5321 127.288 40.5849V90.8916C127.288 98.9445 125.365 105.055 121.518 109.224C117.671 113.392 111.901 115.477 104.208 115.477H80.5656V16ZM103.927 101.266C106.46 101.266 108.383 100.508 109.697 98.9919C111.104 97.476 111.808 95.0128 111.808 91.6022V39.8744C111.808 36.4637 111.104 34.0005 109.697 32.4847C108.383 30.9689 106.46 30.2109 103.927 30.2109H96.0459V101.266H103.927Z" fill="white"/>
<path d="M137.737 16H179.956V30.2109H153.218V56.5012H174.468V70.7121H153.218V101.266H179.956V115.477L137.737 119.707V16Z" fill="white"/>
<path d="M202.787 64.6014L185.759 16H202.084L212.498 48.1167H212.779L223.475 16H238.111L221.082 64.6014L238.955 115.477L232.338 133.24L211.372 80.8019H211.091L199.551 115.477L187.532 101.266L202.787 64.6014Z" fill="white"/>
<path d="M60.6639 125.86H66.471V158.561H76.0265V164.011H60.6639V125.86Z" fill="white"/>
<path d="M78.8113 125.86H94.649V131.31H84.6184V141.393H92.5901V146.843H84.6184V158.561H94.649V164.011H78.8113V125.86Z" fill="white"/>
<path d="M106.225 164.556C103.41 164.556 101.263 163.739 99.7847 162.103C98.3065 160.432 97.5674 158.052 97.5674 154.964V134.907C97.5674 131.819 98.3065 129.457 99.7847 127.822C101.263 126.151 103.41 125.315 106.225 125.315C109.041 125.315 111.188 126.151 112.666 127.822C114.144 129.457 114.883 131.819 114.883 134.907V138.177H109.393V134.526C109.393 132.019 108.39 130.765 106.384 130.765C104.378 130.765 103.375 132.019 103.375 134.526V155.4C103.375 157.871 104.378 159.106 106.384 159.106C108.39 159.106 109.393 157.871 109.393 155.4V147.933H106.489V142.483H114.883V154.964C114.883 158.052 114.144 160.432 112.666 162.103C111.188 163.739 109.041 164.556 106.225 164.556Z" fill="white"/>
<path d="M118.612 125.86H134.45V131.31H124.419V141.393H132.391V146.843H124.419V158.561H134.45V164.011H118.612V125.86Z" fill="white"/>
<path d="M137.79 125.86H145.076L150.724 148.696H150.83V125.86H156.004V164.011H150.038L143.07 136.161H142.964V164.011H137.79V125.86Z" fill="white"/>
<path d="M160.32 125.86H169.189C172.075 125.86 174.239 126.659 175.682 128.258C177.125 129.857 177.847 132.2 177.847 135.289V154.582C177.847 157.671 177.125 160.014 175.682 161.613C174.239 163.212 172.075 164.011 169.189 164.011H160.32V125.86ZM169.083 158.561C170.034 158.561 170.755 158.27 171.248 157.689C171.776 157.108 172.04 156.163 172.04 154.855V135.016C172.04 133.708 171.776 132.763 171.248 132.182C170.755 131.601 170.034 131.31 169.083 131.31H166.127V158.561H169.083Z" fill="white"/>
<path d="M189.316 164.556C186.501 164.556 184.371 163.739 182.928 162.103C181.485 160.432 180.764 158.052 180.764 154.964V152.784H186.254V155.4C186.254 157.871 187.257 159.106 189.263 159.106C190.249 159.106 190.988 158.815 191.481 158.234C192.009 157.616 192.272 156.635 192.272 155.291C192.272 153.692 191.921 152.293 191.217 151.094C190.513 149.859 189.211 148.387 187.31 146.68C184.917 144.499 183.245 142.537 182.295 140.793C181.344 139.013 180.869 137.015 180.869 134.798C180.869 131.782 181.608 129.457 183.087 127.822C184.565 126.151 186.712 125.315 189.527 125.315C192.308 125.315 194.402 126.151 195.81 127.822C197.253 129.457 197.974 131.819 197.974 134.907V136.488H192.484V134.526C192.484 133.218 192.237 132.273 191.745 131.692C191.252 131.074 190.53 130.765 189.58 130.765C187.644 130.765 186.676 131.982 186.676 134.417C186.676 135.797 187.028 137.087 187.732 138.286C188.471 139.485 189.791 140.939 191.692 142.646C194.12 144.826 195.792 146.807 196.707 148.587C197.622 150.367 198.08 152.457 198.08 154.855C198.08 157.98 197.323 160.378 195.81 162.049C194.331 163.72 192.167 164.556 189.316 164.556Z" fill="white"/>
</g>
<defs>
<filter id="filter0_d_82_96" x="0" y="0" width="396.447" height="195" filterUnits="userSpaceOnUse" color-interpolation-filters="sRGB">
<feFlood flood-opacity="0" result="BackgroundImageFix"/>
<feColorMatrix in="SourceAlpha" type="matrix" values="0 0 0 0 0 0 0 0 0 0 0 0 0 0 0 0 0 0 127 0" result="hardAlpha"/>
<feOffset dy="4"/>
<feGaussianBlur stdDeviation="10"/>
<feComposite in2="hardAlpha" operator="out"/>
<feColorMatrix type="matrix" values="0 0 0 0 0 0 0 0 0 0 0 0 0 0 0 0 0 0 0.25 0"/>
<feBlend mode="normal" in2="BackgroundImageFix" result="effect1_dropShadow_82_96"/>
<feBlend mode="normal" in="SourceGraphic" in2="effect1_dropShadow_82_96" result="shape"/>
</filter>
</defs>
</svg>
