<svg width="120" height="52" viewBox="0 0 120 52" fill="none" xmlns="http://www.w3.org/2000/svg">
<path d="M119.227 0.712402H71.3411V6.6374H105.546L106.523 4.6624H116.296L119.227 0.712402Z" fill="#CD2F2F" stroke="#CD2F2F" stroke-width="0.45"/>
<path fill-rule="evenodd" clip-rule="evenodd" d="M108.803 7.625H117.273V12.5625H92.8048V19.475L82.4529 22.4375L81.3975 28.5H71.0457L66.4546 16.5125L70.2189 9.6H107.862L108.803 7.625ZM85.0228 13.55V16.5125L82.0909 17.5L83.0682 19.475H87.9546H88.9318V13.55H85.0228Z" fill="#CD2F2F"/>
<path d="M117.273 7.625H117.723V7.175H117.273V7.625ZM108.803 7.625V7.175H108.519L108.397 7.43143L108.803 7.625ZM117.273 12.5625V13.0125H117.723V12.5625H117.273ZM92.8048 12.5625V12.1125H92.3548V12.5625H92.8048ZM92.8048 19.475L92.9286 19.9076L93.2548 19.8143V19.475H92.8048ZM82.4529 22.4375L82.3291 22.0049L82.0579 22.0825L82.0096 22.3603L82.4529 22.4375ZM81.3975 28.5V28.95H81.7759L81.8408 28.5772L81.3975 28.5ZM71.0457 28.5L70.6254 28.6609L70.7361 28.95H71.0457V28.5ZM66.4546 16.5125L66.0594 16.2973L65.9601 16.4796L66.0344 16.6734L66.4546 16.5125ZM70.2189 9.6V9.15H69.9516L69.8237 9.38479L70.2189 9.6ZM107.862 9.6V10.05H108.146L108.268 9.79357L107.862 9.6ZM85.0228 16.5125L85.1664 16.939L85.4728 16.8358V16.5125H85.0228ZM85.0228 13.55V13.1H84.5728V13.55H85.0228ZM82.0909 17.5L81.9473 17.0735L81.4592 17.238L81.6876 17.6996L82.0909 17.5ZM83.0682 19.475L82.6649 19.6746L82.7888 19.925H83.0682V19.475ZM88.9318 19.475V19.925H89.3818V19.475H88.9318ZM88.9318 13.55H89.3818V13.1H88.9318V13.55ZM117.273 7.175H108.803V8.075H117.273V7.175ZM117.723 12.5625V7.625H116.823V12.5625H117.723ZM92.8048 13.0125H117.273V12.1125H92.8048V13.0125ZM93.2548 19.475V12.5625H92.3548V19.475H93.2548ZM82.5767 22.8701L92.9286 19.9076L92.681 19.0424L82.3291 22.0049L82.5767 22.8701ZM81.8408 28.5772L82.8962 22.5147L82.0096 22.3603L80.9542 28.4228L81.8408 28.5772ZM71.0457 28.95H81.3975V28.05H71.0457V28.95ZM66.0344 16.6734L70.6254 28.6609L71.4659 28.3391L66.8748 16.3516L66.0344 16.6734ZM69.8237 9.38479L66.0594 16.2973L66.8498 16.7277L70.6141 9.81521L69.8237 9.38479ZM107.862 9.15H70.2189V10.05H107.862V9.15ZM108.397 7.43143L107.456 9.40643L108.268 9.79357L109.209 7.81857L108.397 7.43143ZM85.4728 16.5125V13.55H84.5728V16.5125H85.4728ZM82.2346 17.9265L85.1664 16.939L84.8791 16.086L81.9473 17.0735L82.2346 17.9265ZM83.4715 19.2754L82.4943 17.3004L81.6876 17.6996L82.6649 19.6746L83.4715 19.2754ZM87.9546 19.025H83.0682V19.925H87.9546V19.025ZM88.9318 19.025H87.9546V19.925H88.9318V19.025ZM88.4818 13.55V19.475H89.3818V13.55H88.4818ZM85.0228 14H88.9318V13.1H85.0228V14Z" fill="#CD2F2F"/>
<path d="M76.2273 13.55H69.3864L64.5 16.9358L68.4091 30.4786L73.2955 31.3251L76.2273 13.55Z" fill="#3A332A"/>
<path d="M5.91062 0.119995H12.9001L18.2477 24.3048L13.0877 33.3L12.1495 26.7114V26.8062H6.2859L5.34772 33.3L0.562988 27.8016L5.91062 0.119995ZM11.5397 22.3032L9.24117 5.9028H9.14735L6.89572 22.3032H11.5397Z" fill="white"/>
<path d="M20.7511 0.119995H28.6318C31.1962 0.119995 33.1195 0.815196 34.4017 2.2056C35.6838 3.596 36.3249 5.6342 36.3249 8.3202V25.0998C36.3249 27.7858 35.6838 29.824 34.4017 31.2144C33.1195 32.6048 31.1962 33.3 28.6318 33.3H20.7511V0.119995ZM28.538 28.56C29.3824 28.56 30.0235 28.3072 30.4613 27.8016C30.9304 27.296 31.1649 26.4744 31.1649 25.3368V8.0832C31.1649 6.9456 30.9304 6.124 30.4613 5.6184C30.0235 5.1128 29.3824 4.86 28.538 4.86H25.9111V28.56H28.538Z" fill="white"/>
<path d="M39.8079 0.119995H53.8807V4.86H44.9679V13.629H52.0512V18.369H44.9679V28.56H53.8807V33.3L39.8079 34.7112V0.119995Z" fill="white"/>
<path d="M61.4909 16.3308L55.8149 0.119995H61.2564L64.7277 10.8324H64.8215L68.3866 0.119995H73.2651L67.5891 16.3308L73.5466 33.3L71.3409 39.225L64.3524 21.7344H64.2586L60.412 33.3L56.406 28.56L61.4909 16.3308Z" fill="white"/>
<path d="M10.3459 37.7716H12.4774V49.6432H15.9845V51.6218H10.3459V37.7716Z" fill="white"/>
<path d="M17.0066 37.7716H22.8196V39.7502H19.1381V43.4106H22.0639V45.3892H19.1381V49.6432H22.8196V51.6218H17.0066V37.7716Z" fill="white"/>
<path d="M27.0685 51.8196C26.0351 51.8196 25.2471 51.5228 24.7046 50.9293C24.162 50.3225 23.8908 49.4585 23.8908 48.3373V41.0561C23.8908 39.9349 24.162 39.0775 24.7046 38.4839C25.2471 37.8771 26.0351 37.5737 27.0685 37.5737C28.1019 37.5737 28.8899 37.8771 29.4325 38.4839C29.975 39.0775 30.2463 39.9349 30.2463 41.0561V42.2432H28.2311V40.9176C28.2311 40.0074 27.863 39.5523 27.1266 39.5523C26.3903 39.5523 26.0222 40.0074 26.0222 40.9176V48.4956C26.0222 49.3926 26.3903 49.841 27.1266 49.841C27.863 49.841 28.2311 49.3926 28.2311 48.4956V45.7849H27.1654V43.8063H30.2463V48.3373C30.2463 49.4585 29.975 50.3225 29.4325 50.9293C28.8899 51.5228 28.1019 51.8196 27.0685 51.8196Z" fill="white"/>
<path d="M31.6147 37.7716H37.4277V39.7502H33.7462V43.4106H36.672V45.3892H33.7462V49.6432H37.4277V51.6218H31.6147V37.7716Z" fill="white"/>
<path d="M38.6539 37.7716H41.3278L43.4011 46.0619H43.4399V37.7716H45.3388V51.6218H43.1492L40.5915 41.5111H40.5528V51.6218H38.6539V37.7716Z" fill="white"/>
<path d="M46.923 37.7716H50.1782C51.2375 37.7716 52.0319 38.0618 52.5615 38.6422C53.0912 39.2226 53.356 40.0734 53.356 41.1946V48.1988C53.356 49.32 53.0912 50.1708 52.5615 50.7512C52.0319 51.3316 51.2375 51.6218 50.1782 51.6218H46.923V37.7716ZM50.1395 49.6432C50.4882 49.6432 50.7531 49.5377 50.9339 49.3266C51.1277 49.1156 51.2246 48.7726 51.2246 48.2977V41.0956C51.2246 40.6208 51.1277 40.2778 50.9339 40.0668C50.7531 39.8557 50.4882 39.7502 50.1395 39.7502H49.0544V49.6432H50.1395Z" fill="white"/>
<path d="M57.5655 51.8196C56.5321 51.8196 55.7506 51.5228 55.221 50.9293C54.6913 50.3225 54.4265 49.4585 54.4265 48.3373V47.5459H56.4417V48.4956C56.4417 49.3926 56.8098 49.841 57.5462 49.841C57.9079 49.841 58.1791 49.7355 58.36 49.5245C58.5537 49.3002 58.6506 48.9441 58.6506 48.456C58.6506 47.8756 58.5214 47.3678 58.2631 46.9325C58.0047 46.484 57.5268 45.9498 56.8292 45.3298C55.9508 44.5384 55.3372 43.8261 54.9885 43.1929C54.6397 42.5466 54.4653 41.8211 54.4653 41.0165C54.4653 39.9217 54.7366 39.0775 55.2791 38.4839C55.8216 37.8771 56.6096 37.5737 57.643 37.5737C58.6635 37.5737 59.4321 37.8771 59.9488 38.4839C60.4785 39.0775 60.7433 39.9349 60.7433 41.0561V41.6299H58.7281V40.9176C58.7281 40.4427 58.6377 40.0997 58.4569 39.8887C58.276 39.6644 58.0112 39.5523 57.6624 39.5523C56.9519 39.5523 56.5967 39.9942 56.5967 40.878C56.5967 41.3792 56.7259 41.8475 56.9842 42.2828C57.2555 42.7181 57.7399 43.2457 58.4375 43.8657C59.3288 44.6571 59.9424 45.376 60.2783 46.0223C60.6141 46.6687 60.782 47.4271 60.782 48.2977C60.782 49.4321 60.5043 50.3027 59.9488 50.9095C59.4063 51.5162 58.6119 51.8196 57.5655 51.8196Z" fill="white"/>
</svg>
